<svg xmlns="http://www.w3.org/2000/svg" width="704" height="96"><style>line, path, circle, rect, polygon{stroke:black;stroke-width:2;stroke-opacity:1;fill-opacity:1;stroke-linecap:round;stroke-linejoin:miter;}text{font-family:Iosevka Fixed, monospace;font-size:14px;}rect.backdrop{stroke:none;fill:white;}.broken{stroke-dasharray:8;}.filled{fill:black;}.bg_filled{fill:white;}.nofill{fill:white;}.end_marked_arrow{marker-end:url(#arrow);}.start_marked_arrow{marker-start:url(#arrow);}.end_marked_diamond{marker-end:url(#diamond);}.start_marked_diamond{marker-start:url(#diamond);}.end_marked_circle{marker-end:url(#circle);}.start_marked_circle{marker-start:url(#circle);}.end_marked_open_circle{marker-end:url(#open_circle);}.start_marked_open_circle{marker-start:url(#open_circle);}.end_marked_big_open_circle{marker-end:url(#big_open_circle);}.start_marked_big_open_circle{marker-start:url(#big_open_circle);}<!--separator--></style><defs><marker id="arrow" viewBox="-2 -2 8 8" refX="4" refY="2" markerWidth="7" markerHeight="7" orient="auto-start-reverse"><polygon points="0,0 0,4 4,2 0,0"></polygon></marker><marker id="diamond" viewBox="-2 -2 8 8" refX="4" refY="2" markerWidth="7" markerHeight="7" orient="auto-start-reverse"><polygon points="0,2 2,0 4,2 2,4 0,2"></polygon></marker><marker id="circle" viewBox="0 0 8 8" refX="4" refY="4" markerWidth="7" markerHeight="7" orient="auto-start-reverse"><circle cx="4" cy="4" r="2" class="filled"></circle></marker><marker id="open_circle" viewBox="0 0 8 8" refX="4" refY="4" markerWidth="7" markerHeight="7" orient="auto-start-reverse"><circle cx="4" cy="4" r="2" class="bg_filled"></circle></marker><marker id="big_open_circle" viewBox="0 0 8 8" refX="4" refY="4" markerWidth="7" markerHeight="7" orient="auto-start-reverse"><circle cx="4" cy="4" r="3" class="bg_filled"></circle></marker></defs><rect class="backdrop" x="0" y="0" width="704" height="96"></rect><rect x="0" y="0" width="8" height="16" class="solid filled" rx="0"></rect><rect x="8" y="0" width="8" height="16" class="solid filled" rx="0"></rect><rect x="16" y="0" width="8" height="16" class="solid filled" rx="0"></rect><rect x="24" y="0" width="8" height="16" class="solid filled" rx="0"></rect><rect x="32" y="0" width="8" height="16" class="solid filled" rx="0"></rect><rect x="40" y="0" width="8" height="16" class="solid filled" rx="0"></rect><rect x="0" y="16" width="8" height="16" class="solid filled" rx="0"></rect><rect x="8" y="16" width="8" height="16" class="solid filled" rx="0"></rect><rect x="40" y="16" width="8" height="16" class="solid filled" rx="0"></rect><rect x="48" y="16" width="8" height="16" class="solid filled" rx="0"></rect><rect x="0" y="32" width="8" height="16" class="solid filled" rx="0"></rect><rect x="8" y="32" width="8" height="16" class="solid filled" rx="0"></rect><rect x="16" y="32" width="8" height="16" class="solid filled" rx="0"></rect><rect x="24" y="32" width="8" height="16" class="solid filled" rx="0"></rect><rect x="32" y="32" width="8" height="16" class="solid filled" rx="0"></rect><rect x="40" y="32" width="8" height="16" class="solid filled" rx="0"></rect><rect x="0" y="48" width="8" height="16" class="solid filled" rx="0"></rect><rect x="8" y="48" width="8" height="16" class="solid filled" rx="0"></rect><rect x="0" y="64" width="8" height="16" class="solid filled" rx="0"></rect><rect x="8" y="64" width="8" height="16" class="solid filled" rx="0"></rect><rect x="64" y="0" width="8" height="16" class="solid filled" rx="0"></rect><rect x="72" y="0" width="8" height="16" class="solid filled" rx="0"></rect><rect x="64" y="16" width="8" height="16" class="solid filled" rx="0"></rect><rect x="72" y="16" width="8" height="16" class="solid filled" rx="0"></rect><rect x="64" y="32" width="8" height="16" class="solid filled" rx="0"></rect><rect x="72" y="32" width="8" height="16" class="solid filled" rx="0"></rect><rect x="64" y="48" width="8" height="16" class="solid filled" rx="0"></rect><rect x="72" y="48" width="8" height="16" class="solid filled" rx="0"></rect><rect x="64" y="64" width="8" height="16" class="solid filled" rx="0"></rect><rect x="72" y="64" width="8" height="16" class="solid filled" rx="0"></rect><rect x="88" y="0" width="8" height="16" class="solid filled" rx="0"></rect><rect x="96" y="0" width="8" height="16" class="solid filled" rx="0"></rect><rect x="128" y="0" width="8" height="16" class="solid filled" rx="0"></rect><rect x="136" y="0" width="8" height="16" class="solid filled" rx="0"></rect><rect x="96" y="16" width="8" height="16" class="solid filled" rx="0"></rect><rect x="104" y="16" width="8" height="16" class="solid filled" rx="0"></rect><rect x="120" y="16" width="8" height="16" class="solid filled" rx="0"></rect><rect x="128" y="16" width="8" height="16" class="solid filled" rx="0"></rect><rect x="104" y="32" width="8" height="16" class="solid filled" rx="0"></rect><rect x="112" y="32" width="8" height="16" class="solid filled" rx="0"></rect><rect x="120" y="32" width="8" height="16" class="solid filled" rx="0"></rect><rect x="96" y="48" width="8" height="16" class="solid filled" rx="0"></rect><rect x="104" y="48" width="8" height="16" class="solid filled" rx="0"></rect><rect x="120" y="48" width="8" height="16" class="solid filled" rx="0"></rect><rect x="128" y="48" width="8" height="16" class="solid filled" rx="0"></rect><rect x="88" y="64" width="8" height="16" class="solid filled" rx="0"></rect><rect x="96" y="64" width="8" height="16" class="solid filled" rx="0"></rect><rect x="128" y="64" width="8" height="16" class="solid filled" rx="0"></rect><rect x="136" y="64" width="8" height="16" class="solid filled" rx="0"></rect><rect x="152" y="0" width="8" height="16" class="solid filled" rx="0"></rect><rect x="160" y="0" width="8" height="16" class="solid filled" rx="0"></rect><rect x="168" y="0" width="8" height="16" class="solid filled" rx="0"></rect><rect x="176" y="0" width="8" height="16" class="solid filled" rx="0"></rect><rect x="184" y="0" width="8" height="16" class="solid filled" rx="0"></rect><rect x="192" y="0" width="8" height="16" class="solid filled" rx="0"></rect><rect x="200" y="0" width="8" height="16" class="solid filled" rx="0"></rect><rect x="152" y="16" width="8" height="16" class="solid filled" rx="0"></rect><rect x="160" y="16" width="8" height="16" class="solid filled" rx="0"></rect><rect x="152" y="32" width="8" height="16" class="solid filled" rx="0"></rect><rect x="160" y="32" width="8" height="16" class="solid filled" rx="0"></rect><rect x="168" y="32" width="8" height="16" class="solid filled" rx="0"></rect><rect x="176" y="32" width="8" height="16" class="solid filled" rx="0"></rect><rect x="184" y="32" width="8" height="16" class="solid filled" rx="0"></rect><rect x="152" y="48" width="8" height="16" class="solid filled" rx="0"></rect><rect x="160" y="48" width="8" height="16" class="solid filled" rx="0"></rect><rect x="152" y="64" width="8" height="16" class="solid filled" rx="0"></rect><rect x="160" y="64" width="8" height="16" class="solid filled" rx="0"></rect><rect x="168" y="64" width="8" height="16" class="solid filled" rx="0"></rect><rect x="176" y="64" width="8" height="16" class="solid filled" rx="0"></rect><rect x="184" y="64" width="8" height="16" class="solid filled" rx="0"></rect><rect x="192" y="64" width="8" height="16" class="solid filled" rx="0"></rect><rect x="200" y="64" width="8" height="16" class="solid filled" rx="0"></rect><rect x="216" y="0" width="8" height="16" class="solid filled" rx="0"></rect><rect x="224" y="0" width="8" height="16" class="solid filled" rx="0"></rect><rect x="216" y="16" width="8" height="16" class="solid filled" rx="0"></rect><rect x="224" y="16" width="8" height="16" class="solid filled" rx="0"></rect><rect x="216" y="32" width="8" height="16" class="solid filled" rx="0"></rect><rect x="224" y="32" width="8" height="16" class="solid filled" rx="0"></rect><rect x="216" y="48" width="8" height="16" class="solid filled" rx="0"></rect><rect x="224" y="48" width="8" height="16" class="solid filled" rx="0"></rect><rect x="216" y="64" width="8" height="16" class="solid filled" rx="0"></rect><rect x="224" y="64" width="8" height="16" class="solid filled" rx="0"></rect><rect x="232" y="64" width="8" height="16" class="solid filled" rx="0"></rect><rect x="240" y="64" width="8" height="16" class="solid filled" rx="0"></rect><rect x="248" y="64" width="8" height="16" class="solid filled" rx="0"></rect><rect x="256" y="64" width="8" height="16" class="solid filled" rx="0"></rect><rect x="264" y="64" width="8" height="16" class="solid filled" rx="0"></rect><rect x="312" y="0" width="8" height="16" class="solid filled" rx="0"></rect><rect x="320" y="0" width="8" height="16" class="solid filled" rx="0"></rect><rect x="328" y="0" width="8" height="16" class="solid filled" rx="0"></rect><rect x="336" y="0" width="8" height="16" class="solid filled" rx="0"></rect><rect x="344" y="0" width="8" height="16" class="solid filled" rx="0"></rect><rect x="352" y="0" width="8" height="16" class="solid filled" rx="0"></rect><rect x="360" y="0" width="8" height="16" class="solid filled" rx="0"></rect><rect x="312" y="16" width="8" height="16" class="solid filled" rx="0"></rect><rect x="320" y="16" width="8" height="16" class="solid filled" rx="0"></rect><rect x="312" y="32" width="8" height="16" class="solid filled" rx="0"></rect><rect x="320" y="32" width="8" height="16" class="solid filled" rx="0"></rect><rect x="328" y="32" width="8" height="16" class="solid filled" rx="0"></rect><rect x="336" y="32" width="8" height="16" class="solid filled" rx="0"></rect><rect x="344" y="32" width="8" height="16" class="solid filled" rx="0"></rect><rect x="352" y="32" width="8" height="16" class="solid filled" rx="0"></rect><rect x="360" y="32" width="8" height="16" class="solid filled" rx="0"></rect><rect x="352" y="48" width="8" height="16" class="solid filled" rx="0"></rect><rect x="360" y="48" width="8" height="16" class="solid filled" rx="0"></rect><rect x="312" y="64" width="8" height="16" class="solid filled" rx="0"></rect><rect x="320" y="64" width="8" height="16" class="solid filled" rx="0"></rect><rect x="328" y="64" width="8" height="16" class="solid filled" rx="0"></rect><rect x="336" y="64" width="8" height="16" class="solid filled" rx="0"></rect><rect x="344" y="64" width="8" height="16" class="solid filled" rx="0"></rect><rect x="352" y="64" width="8" height="16" class="solid filled" rx="0"></rect><rect x="360" y="64" width="8" height="16" class="solid filled" rx="0"></rect><rect x="376" y="0" width="8" height="16" class="solid filled" rx="0"></rect><rect x="384" y="0" width="8" height="16" class="solid filled" rx="0"></rect><rect x="416" y="0" width="8" height="16" class="solid filled" rx="0"></rect><rect x="424" y="0" width="8" height="16" class="solid filled" rx="0"></rect><rect x="376" y="16" width="8" height="16" class="solid filled" rx="0"></rect><rect x="384" y="16" width="8" height="16" class="solid filled" rx="0"></rect><rect x="408" y="16" width="8" height="16" class="solid filled" rx="0"></rect><rect x="416" y="16" width="8" height="16" class="solid filled" rx="0"></rect><rect x="376" y="32" width="8" height="16" class="solid filled" rx="0"></rect><rect x="384" y="32" width="8" height="16" class="solid filled" rx="0"></rect><rect x="392" y="32" width="8" height="16" class="solid filled" rx="0"></rect><rect x="400" y="32" width="8" height="16" class="solid filled" rx="0"></rect><rect x="408" y="32" width="8" height="16" class="solid filled" rx="0"></rect><rect x="376" y="48" width="8" height="16" class="solid filled" rx="0"></rect><rect x="384" y="48" width="8" height="16" class="solid filled" rx="0"></rect><rect x="408" y="48" width="8" height="16" class="solid filled" rx="0"></rect><rect x="416" y="48" width="8" height="16" class="solid filled" rx="0"></rect><rect x="376" y="64" width="8" height="16" class="solid filled" rx="0"></rect><rect x="384" y="64" width="8" height="16" class="solid filled" rx="0"></rect><rect x="416" y="64" width="8" height="16" class="solid filled" rx="0"></rect><rect x="424" y="64" width="8" height="16" class="solid filled" rx="0"></rect><rect x="440" y="0" width="8" height="16" class="solid filled" rx="0"></rect><rect x="448" y="0" width="8" height="16" class="solid filled" rx="0"></rect><rect x="456" y="0" width="8" height="16" class="solid filled" rx="0"></rect><rect x="464" y="0" width="8" height="16" class="solid filled" rx="0"></rect><rect x="472" y="0" width="8" height="16" class="solid filled" rx="0"></rect><rect x="480" y="0" width="8" height="16" class="solid filled" rx="0"></rect><rect x="488" y="0" width="8" height="16" class="solid filled" rx="0"></rect><rect x="440" y="16" width="8" height="16" class="solid filled" rx="0"></rect><rect x="448" y="16" width="8" height="16" class="solid filled" rx="0"></rect><rect x="440" y="32" width="8" height="16" class="solid filled" rx="0"></rect><rect x="448" y="32" width="8" height="16" class="solid filled" rx="0"></rect><rect x="456" y="32" width="8" height="16" class="solid filled" rx="0"></rect><rect x="464" y="32" width="8" height="16" class="solid filled" rx="0"></rect><rect x="472" y="32" width="8" height="16" class="solid filled" rx="0"></rect><rect x="440" y="48" width="8" height="16" class="solid filled" rx="0"></rect><rect x="448" y="48" width="8" height="16" class="solid filled" rx="0"></rect><rect x="440" y="64" width="8" height="16" class="solid filled" rx="0"></rect><rect x="448" y="64" width="8" height="16" class="solid filled" rx="0"></rect><rect x="456" y="64" width="8" height="16" class="solid filled" rx="0"></rect><rect x="464" y="64" width="8" height="16" class="solid filled" rx="0"></rect><rect x="472" y="64" width="8" height="16" class="solid filled" rx="0"></rect><rect x="480" y="64" width="8" height="16" class="solid filled" rx="0"></rect><rect x="488" y="64" width="8" height="16" class="solid filled" rx="0"></rect><rect x="504" y="0" width="8" height="16" class="solid filled" rx="0"></rect><rect x="512" y="0" width="8" height="16" class="solid filled" rx="0"></rect><rect x="520" y="0" width="8" height="16" class="solid filled" rx="0"></rect><rect x="528" y="0" width="8" height="16" class="solid filled" rx="0"></rect><rect x="536" y="0" width="8" height="16" class="solid filled" rx="0"></rect><rect x="544" y="0" width="8" height="16" class="solid filled" rx="0"></rect><rect x="552" y="0" width="8" height="16" class="solid filled" rx="0"></rect><rect x="560" y="0" width="8" height="16" class="solid filled" rx="0"></rect><rect x="528" y="16" width="8" height="16" class="solid filled" rx="0"></rect><rect x="536" y="16" width="8" height="16" class="solid filled" rx="0"></rect><rect x="528" y="32" width="8" height="16" class="solid filled" rx="0"></rect><rect x="536" y="32" width="8" height="16" class="solid filled" rx="0"></rect><rect x="528" y="48" width="8" height="16" class="solid filled" rx="0"></rect><rect x="536" y="48" width="8" height="16" class="solid filled" rx="0"></rect><rect x="528" y="64" width="8" height="16" class="solid filled" rx="0"></rect><rect x="536" y="64" width="8" height="16" class="solid filled" rx="0"></rect><rect x="584" y="0" width="8" height="16" class="solid filled" rx="0"></rect><rect x="592" y="0" width="8" height="16" class="solid filled" rx="0"></rect><rect x="600" y="0" width="8" height="16" class="solid filled" rx="0"></rect><rect x="608" y="0" width="8" height="16" class="solid filled" rx="0"></rect><rect x="616" y="0" width="8" height="16" class="solid filled" rx="0"></rect><rect x="624" y="0" width="8" height="16" class="solid filled" rx="0"></rect><rect x="576" y="16" width="8" height="16" class="solid filled" rx="0"></rect><rect x="584" y="16" width="8" height="16" class="solid filled" rx="0"></rect><rect x="576" y="32" width="8" height="16" class="solid filled" rx="0"></rect><rect x="584" y="32" width="8" height="16" class="solid filled" rx="0"></rect><rect x="576" y="48" width="8" height="16" class="solid filled" rx="0"></rect><rect x="584" y="48" width="8" height="16" class="solid filled" rx="0"></rect><rect x="584" y="64" width="8" height="16" class="solid filled" rx="0"></rect><rect x="592" y="64" width="8" height="16" class="solid filled" rx="0"></rect><rect x="600" y="64" width="8" height="16" class="solid filled" rx="0"></rect><rect x="608" y="64" width="8" height="16" class="solid filled" rx="0"></rect><rect x="616" y="64" width="8" height="16" class="solid filled" rx="0"></rect><rect x="624" y="64" width="8" height="16" class="solid filled" rx="0"></rect><rect x="640" y="0" width="8" height="16" class="solid filled" rx="0"></rect><rect x="648" y="0" width="8" height="16" class="solid filled" rx="0"></rect><rect x="680" y="0" width="8" height="16" class="solid filled" rx="0"></rect><rect x="688" y="0" width="8" height="16" class="solid filled" rx="0"></rect><rect x="640" y="16" width="8" height="16" class="solid filled" rx="0"></rect><rect x="648" y="16" width="8" height="16" class="solid filled" rx="0"></rect><rect x="680" y="16" width="8" height="16" class="solid filled" rx="0"></rect><rect x="688" y="16" width="8" height="16" class="solid filled" rx="0"></rect><rect x="640" y="32" width="8" height="16" class="solid filled" rx="0"></rect><rect x="648" y="32" width="8" height="16" class="solid filled" rx="0"></rect><rect x="656" y="32" width="8" height="16" class="solid filled" rx="0"></rect><rect x="664" y="32" width="8" height="16" class="solid filled" rx="0"></rect><rect x="672" y="32" width="8" height="16" class="solid filled" rx="0"></rect><rect x="680" y="32" width="8" height="16" class="solid filled" rx="0"></rect><rect x="688" y="32" width="8" height="16" class="solid filled" rx="0"></rect><rect x="640" y="48" width="8" height="16" class="solid filled" rx="0"></rect><rect x="648" y="48" width="8" height="16" class="solid filled" rx="0"></rect><rect x="680" y="48" width="8" height="16" class="solid filled" rx="0"></rect><rect x="688" y="48" width="8" height="16" class="solid filled" rx="0"></rect><rect x="640" y="64" width="8" height="16" class="solid filled" rx="0"></rect><rect x="648" y="64" width="8" height="16" class="solid filled" rx="0"></rect><rect x="680" y="64" width="8" height="16" class="solid filled" rx="0"></rect><rect x="688" y="64" width="8" height="16" class="solid filled" rx="0"></rect></svg>